<svg xmlns="http://www.w3.org/2000/svg" xmlns:xlink="http://www.w3.org/1999/xlink" viewBox="0 0 349.68 238.71"><defs><style>.cls-1,.cls-5,.cls-8,.cls-9{fill:none;}.cls-2{fill:#aaa;}.cls-3{fill:#0034aa;}.cls-4{fill:#7fbcff;}.cls-5,.cls-6,.cls-7,.cls-8,.cls-9{stroke:#000;stroke-linecap:round;stroke-linejoin:round;}.cls-5,.cls-6,.cls-7{stroke-width:3px;}.cls-6{fill:#fc6;}.cls-12,.cls-7{fill:#f63;}.cls-9{opacity:0.6;}.cls-10{isolation:isolate;}.cls-11{clip-path:url(#clip-path);}</style><clipPath id="clip-path" transform="translate(-7.1 -53.98)"><polygon class="cls-1" points="150 132.92 187.36 103.23 230.12 132.1 192.76 161.79 150 132.92"/></clipPath></defs><title>logoJabes</title><g id="Camada_4" data-name="Camada 4"><path class="cls-2" d="M89.06,175.51,44,203s-28-8-32.94-31.49C10.6,165.58,8.86,159.85,9,156c.49-13.06,5.88-14.49,12.06-14.49C29.06,141.51,89.06,175.51,89.06,175.51Z" transform="translate(-7.1 -53.98)"/><path class="cls-2" d="M178.06,230.51c-10.19-3.88-19.69,18.6-.06,48.49,17,20,36,11,33-2C207,258,204.54,240.58,178.06,230.51Z" transform="translate(-7.1 -53.98)"/><path class="cls-3" d="M175,278c-8-4-132.94-73.49-132-74s47.06-27.49,47.06-27.49S186,230,183,230c-14,1-15.84,5.19-17,16C164.84,263.81,175,278,175,278Z" transform="translate(-7.1 -53.98)"/><path class="cls-4" d="M209,287s129-64,146-95c1-16-4.26-24.85-26-42-41-28-107.49-64.46-128-76-32-18-34-19-34-19L21,140l26,12,138,79s15.2,9.48,20.1,23.24S210,273,210,279,209,287,209,287Z" transform="translate(-7.1 -53.98)"/></g><g id="conveiorbelt"><path class="cls-5" d="M15.06,143.51c8-4,20,0,30,16s12,38,2,42-28.55-10.5-34-24S5.94,149.93,15.06,143.51Z" transform="translate(-7.1 -53.98)"/><line class="cls-5" x1="31.96" y1="147.53" x2="172.66" y2="226.59"/><path class="cls-5" d="M188.5,233.5c-22-14-149.44-86-149.44-86s-16-12-24-4c0,0,146-90,152-88s146,82,162,94,28,24,26,42-141.56,98-145.56,96" transform="translate(-7.1 -53.98)"/><polygon class="cls-6" points="123.96 103.53 124.4 81.53 184.4 44.52 239.96 79.53 239.96 103.53 184.4 138.53 123.96 103.53"/><polyline class="cls-5" points="237.96 81.53 184.4 115.53 184.4 137.53"/><line class="cls-5" x1="124.4" y1="81.52" x2="183.4" y2="114.52"/><line class="cls-7" x1="39.96" y1="147.53" x2="79.96" y2="123.53"/><path class="cls-7" d="M31.06,171.51" transform="translate(-7.1 -53.98)"/><line class="cls-7" x1="23.96" y1="117.53" x2="23.96" y2="117.53"/><line class="cls-7" x1="181.96" y1="207.53" x2="181.96" y2="207.53"/><line class="cls-8" x1="203.96" y1="215.53" x2="347.96" y2="127.53"/><line class="cls-8" x1="197.4" y1="197.52" x2="340.4" y2="112.52"/><line class="cls-8" x1="186.4" y1="182.52" x2="325.96" y2="99.53"/><line class="cls-8" x1="169.96" y1="171.53" x2="307.96" y2="87.53"/><line class="cls-8" x1="149.96" y1="161.53" x2="287.96" y2="75.53"/><line class="cls-8" x1="241.62" y1="79.8" x2="267.96" y2="63.53"/><line class="cls-8" x1="130.4" y1="148.52" x2="164.17" y2="127.64"/><line class="cls-8" x1="220.62" y1="66.33" x2="246.4" y2="50.52"/><line class="cls-8" x1="107.96" y1="135.53" x2="141.52" y2="114.92"/><line class="cls-8" x1="201.12" y1="53.37" x2="225.96" y2="37.53"/><line class="cls-8" x1="87.96" y1="125.53" x2="123.22" y2="103.05"/><line class="cls-8" x1="67.96" y1="113.53" x2="205.96" y2="27.53"/><line class="cls-8" x1="45.96" y1="99.53" x2="185.4" y2="16.52"/><line class="cls-8" x1="27.96" y1="89.53" x2="167.96" y2="5.53"/><path class="cls-5" d="M172.06,232.51c8-4,20,0,30,16s12,38,2,42-28.55-10.5-34-24S162.94,238.93,172.06,232.51Z" transform="translate(-7.1 -53.98)"/><line class="cls-9" x1="96.4" y1="79.52" x2="119.4" y2="89.52"/><line class="cls-9" x1="98.4" y1="71.52" x2="121.4" y2="81.52"/><line class="cls-9" x1="117.63" y1="84.29" x2="101.63" y2="77.29"/></g><g id="rust_logo" data-name="rust logo"><g id="path3"><g class="cls-10"><g class="cls-11"><path class="cls-12" d="M186.82,148.8a1.12,1.12,0,0,1-.24-.19,1,1,0,0,1,.35-1.71,2.22,2.22,0,0,1,2.12.14,2.31,2.31,0,0,1,.24.2,1,1,0,0,1-.35,1.71,2.19,2.19,0,0,1-2.12-.15m-18.76-12.74a1,1,0,0,1-.36-1.53,2,2,0,0,1,2.3-.39,1.64,1.64,0,0,1,.29.16,1,1,0,0,1,.36,1.53,2,2,0,0,1-2.3.39,1.35,1.35,0,0,1-.29-.16m14.7-2.95,2.5-2,4,2.73a2.09,2.09,0,0,1,.6,3.17c-.39.54-1.83,2.21-2.16,2.83s-.71,2.35.33,3.06l6.37,4.3a1.91,1.91,0,0,0,.25.13,25.9,25.9,0,0,1-2.93.2l-2.18-2.21a1.3,1.3,0,0,0-.23-.18,2,2,0,0,0-1.93-.13l-3.23,1.64a24.63,24.63,0,0,1-7.67-3.4,17.38,17.38,0,0,1-5.32-5.45l2-2.5a.94.94,0,0,0-.33-1.39,1.17,1.17,0,0,0-.27-.15l-3.12-1.38a11.48,11.48,0,0,1,0-2L182.26,139c.15.09.27.14.39,0l3.94-3.13c.12-.1,0-.19-.1-.28l-3.73-2.52m6.19-4.93,2.58-2,5.27,3.56c.27.19,1.65,1.52.57,2.38-.89.71-2.48.11-3.52-.59l-4.9-3.31m-17.55-2.94a14.86,14.86,0,0,1,3.15-3.38,16.82,16.82,0,0,1,1.55-1.11l3.8,1a1.64,1.64,0,0,0,1.93-.66l.55-1.27,2.21,1.5-8.73,6.93-4.46-3m36.8,15a1.53,1.53,0,0,1-.42-.42c-.39-.63,0-1.35.82-1.61a2.25,2.25,0,0,1,1.82.26,1.56,1.56,0,0,1,.42.43c.39.63,0,1.34-.83,1.6a2.19,2.19,0,0,1-1.81-.26M178,119.76a1.06,1.06,0,0,1-.5-1.31,1.82,1.82,0,0,1,2.12-.73,2.07,2.07,0,0,1,.6.27,1.07,1.07,0,0,1,.5,1.31,1.79,1.79,0,0,1-2.11.73,1.89,1.89,0,0,1-.61-.27m23.43,3.59a2,2,0,0,0,1.09.31l4,0c3.84,3.68,5.22,8.29,4,12.52l-4.46,1.33c-.77.23-1.11.89-.75,1.46l1.76,2.84a15.47,15.47,0,0,1-1.27,1.13c-.35.27-.7.53-1.07.77l-1.6-1.08a.35.35,0,0,0-.45,0l-.64.51a3.14,3.14,0,0,1-3.77.3l-.23-.14c-.75-.51-1.16-1.3-.86-1.69,1.88-2.2,1.58-3.14,1.19-4.69,2.44.37,5.36.45,7.08-.92a3.75,3.75,0,0,0,1.16-4.52,7.25,7.25,0,0,0-2.39-3l-16.59-11.2a27.91,27.91,0,0,1,13.06,2.48l.16,2.74a1.12,1.12,0,0,0,.52.82m1.76-1.34a1.2,1.2,0,0,1-.57-.89c-.05-.68.68-1.23,1.61-1.22a2.16,2.16,0,0,1,1.18.34,1.22,1.22,0,0,1,.57.9c.05.68-.68,1.22-1.6,1.22a2.26,2.26,0,0,1-1.19-.35m5.59-4.35a1.1,1.1,0,0,0-.78-.15l-2.67.5-.58-.32-.08-2a.62.62,0,0,0-.29-.45l-.12-.07a1.13,1.13,0,0,0-.81,0L201,116l-.64-.24-.63-2a.68.68,0,0,0-.27-.34,1.11,1.11,0,0,0-.27-.12,1,1,0,0,0-.79.08l-2.15,1.21-.69-.14-1.15-1.91a.67.67,0,0,0-.21-.2,1,1,0,0,0-.43-.17,1,1,0,0,0-.75.19l-1.77,1.51-.7,0-1.62-1.73-.13-.1a1.09,1.09,0,0,0-.6-.18.84.84,0,0,0-.67.3l-1.31,1.75-.68.05-2.06-1.47h0a1.06,1.06,0,0,0-.75-.16.72.72,0,0,0-.57.38l-.8,1.92-.66.16-2.37-1.17a1.11,1.11,0,0,0-.8-.06.61.61,0,0,0-.46.46l-.26,2-.6.24-2.61-.81a1.1,1.1,0,0,0-.8,0,.53.53,0,0,0-.31.53l.29,2a5.54,5.54,0,0,0-.51.33l-2.77-.44a1,1,0,0,0-.75.17.45.45,0,0,0-.16.55l.82,2-.41.4-2.79,0a.92.92,0,0,0-.7.27.47.47,0,0,0,0,.59l1.32,1.84-.29.46-2.72.35a.76.76,0,0,0-.59.37.5.5,0,0,0,.15.58l1.78,1.64c-.06.16-.11.32-.16.49l-2.55.74a.65.65,0,0,0-.48.45.56.56,0,0,0,.27.53l0,0,2.17,1.38c0,.17,0,.34,0,.5l-2.28,1.1a.55.55,0,0,0-.35.52.62.62,0,0,0,.29.42l.15.08,2.48,1c0,.17.07.34.11.51l-1.92,1.41a.49.49,0,0,0-.19.56.6.6,0,0,0,.25.3,1,1,0,0,0,.3.14l2.69.69c.08.16.16.33.25.49l-1.48,1.67a.45.45,0,0,0,0,.58.68.68,0,0,0,.19.19,1.19,1.19,0,0,0,.47.16l2.79.3.37.45-1,1.87a.49.49,0,0,0,.12.58l.12.09a1,1,0,0,0,.61.16l2.79-.09.48.39-.46,2a.54.54,0,0,0,.27.56,1.11,1.11,0,0,0,.78.15l2.68-.49.57.32.09,2a.61.61,0,0,0,.28.44l.13.07a1.11,1.11,0,0,0,.8,0l2.46-.87.65.23.63,2a.63.63,0,0,0,.26.33.83.83,0,0,0,.27.12,1,1,0,0,0,.79-.07l2.16-1.21.68.14,1.15,1.9a.7.7,0,0,0,.21.21,1,1,0,0,0,.44.16.93.93,0,0,0,.73-.19l1.77-1.51.71,0,1.63,1.72a.63.63,0,0,0,.12.11,1.1,1.1,0,0,0,.59.17.82.82,0,0,0,.68-.29l1.31-1.76.68,0,2.05,1.47,0,0a1.1,1.1,0,0,0,.74.15.74.74,0,0,0,.58-.39l.79-1.92.66-.15,2.38,1.17a1,1,0,0,0,.79.05.61.61,0,0,0,.46-.46l.26-2,.6-.25,2.62.82a1,1,0,0,0,.78-.06.51.51,0,0,0,.32-.52l-.29-2,.51-.33,2.77.44a1,1,0,0,0,.75-.16.48.48,0,0,0,.17-.57l-.83-2,.41-.4,2.8,0a.85.85,0,0,0,.68-.27.45.45,0,0,0,0-.58l-1.33-1.85.29-.45,2.72-.36a.7.7,0,0,0,.59-.37.48.48,0,0,0-.14-.57L215,137.94c.06-.16.11-.32.16-.49l2.55-.73a.61.61,0,0,0,.47-.46.49.49,0,0,0-.26-.52l0,0-2.17-1.37a4.34,4.34,0,0,0,0-.51l2.29-1.1a.52.52,0,0,0,.34-.51.61.61,0,0,0-.28-.42l-.16-.09-2.48-1.05c0-.16-.06-.33-.11-.51l1.92-1.41a.47.47,0,0,0,.2-.55.7.7,0,0,0-.26-.31,1,1,0,0,0-.31-.13l-2.67-.69c-.09-.16-.17-.33-.25-.49l1.48-1.67a.47.47,0,0,0,0-.59.66.66,0,0,0-.19-.18,1,1,0,0,0-.47-.17l-2.77-.3c-.13-.15-.25-.3-.39-.45l1-1.86a.51.51,0,0,0-.12-.59l-.11-.08a1,1,0,0,0-.63-.17l-2.78.1-.48-.39.45-2a.53.53,0,0,0-.27-.56" transform="translate(-7.1 -53.98)"/></g></g></g><path class="cls-12" d="M184.06,124.51" transform="translate(-7.1 -53.98)"/></g></svg>